# xmcd CD database file
# Copyright (C) 1993-1998 Ti Kan
#
# Track frame offsets:
#	180
#	11271
#	23343
#	38440
#	49274
#	62807
#	77879
#	85450
#	99182
#	113876
#	129217
#	144250
#	157526
#
# Disc length: 2285 seconds
#
# Revision: 1
# Processed by: cddbd v1.4b41PL1 Copyright (c) Steve Scherf et al.
# Submitted via: NotifyCDPlayer(CDDB) 1.51.2
#
DISCID=8708eb0d
DTITLE=Summer Church - Walkin' On Water
DYEAR=1900
DGENRE=
TTITLE0=Chapel Hill
TTITLE1=Church in the Wildwood
TTITLE2=The River is Wide
TTITLE3=Have Thine Own Way
TTITLE4=Gospel Train
TTITLE5=Will the Circle be Unbroken
TTITLE6=Cumberland Crossing
TTITLE7=Walkin' on Water
TTITLE8=I'll Be Somewhere Listening/Sweet By and By
TTITLE9=Day of Judgement
TTITLE10=No Dark Valley
TTITLE11=When the Congregation Sings
TTITLE12=Amazing Grace
EXTD=
EXTT0=
EXTT1=
EXTT2=
EXTT3=
EXTT4=
EXTT5=
EXTT6=
EXTT7=
EXTT8=
EXTT9=
EXTT10=
EXTT11=
EXTT12=
PLAYORDER=
